<?xml version="1.0" encoding="UTF-8" standalone="no"?>
<!-- Created with Inkscape (http://www.inkscape.org/) -->

<svg
   xmlns:dc="http://purl.org/dc/elements/1.1/"
   xmlns:cc="http://creativecommons.org/ns#"
   xmlns:rdf="http://www.w3.org/1999/02/22-rdf-syntax-ns#"
   xmlns:svg="http://www.w3.org/2000/svg"
   xmlns="http://www.w3.org/2000/svg"
   xmlns:sodipodi="http://sodipodi.sourceforge.net/DTD/sodipodi-0.dtd"
   xmlns:inkscape="http://www.inkscape.org/namespaces/inkscape"
   width="9.3274441mm"
   height="9.3270912mm"
   viewBox="0 0 33.049999 33.048748"
   id="svg4766"
   version="1.1"
   inkscape:version="0.91 r13725"
   sodipodi:docname="down_yellow.svg">
  <defs
     id="defs4768" />
  <sodipodi:namedview
     id="base"
     pagecolor="#ffffff"
     bordercolor="#666666"
     borderopacity="1.0"
     inkscape:pageopacity="0.0"
     inkscape:pageshadow="2"
     inkscape:zoom="1.979899"
     inkscape:cx="107.23929"
     inkscape:cy="148.77958"
     inkscape:document-units="px"
     inkscape:current-layer="layer1"
     showgrid="false"
     fit-margin-top="0"
     fit-margin-left="0"
     fit-margin-right="0"
     fit-margin-bottom="0"
     inkscape:window-width="1920"
     inkscape:window-height="1009"
     inkscape:window-x="0"
     inkscape:window-y="0"
     inkscape:window-maximized="1" />
  <metadata
     id="metadata4771">
    <rdf:RDF>
      <cc:Work
         rdf:about="">
        <dc:format>image/svg+xml</dc:format>
        <dc:type
           rdf:resource="http://purl.org/dc/dcmitype/StillImage" />
        <dc:title></dc:title>
      </cc:Work>
    </rdf:RDF>
  </metadata>
  <g
     inkscape:label="Capa 1"
     inkscape:groupmode="layer"
     id="layer1"
     transform="translate(-217.76071,-850.12354)">
    <g
       transform="matrix(1.25,0,0,-1.25,219.89696,852.25979)"
       id="g330">
      <path
         inkscape:connector-curvature="0"
         id="path332"
         style="fill:#ffb800;fill-opacity:1;fill-rule:nonzero;stroke:none"
         d="m 0,0 c -0.739,-0.739 -1.299,-1.398 -1.709,-2 l 17.484,-17.484 -4.438,-10e-4 -3.729,0 -0.969,0 -5.514,0 10e-4,-2.339 c -10e-4,-1.071 0.252,-1.821 0.76,-2.257 0.507,-0.432 1.366,-0.649 2.578,-0.649 l 1.901,0 1.244,0 3.771,0 13.35,0 0.001,13.351 -0.001,3.77 0,1.244 0,1.901 c 0,1.212 -0.217,2.071 -0.649,2.578 -0.436,0.508 -1.186,0.761 -2.256,0.76 l -2.34,10e-4 0,-5.514 0,-0.969 0,-3.729 0,-4.439 L 2,1.709 C 1.418,1.319 0.741,0.741 0,0" />
    </g>
  </g>
</svg>
