<?xml version="1.0" encoding="UTF-8" standalone="no"?>
<!-- Created with Inkscape (http://www.inkscape.org/) -->

<svg
   xmlns:dc="http://purl.org/dc/elements/1.1/"
   xmlns:cc="http://creativecommons.org/ns#"
   xmlns:rdf="http://www.w3.org/1999/02/22-rdf-syntax-ns#"
   xmlns:svg="http://www.w3.org/2000/svg"
   xmlns="http://www.w3.org/2000/svg"
   xmlns:sodipodi="http://sodipodi.sourceforge.net/DTD/sodipodi-0.dtd"
   xmlns:inkscape="http://www.inkscape.org/namespaces/inkscape"
   width="11.076406mm"
   height="12.338403mm"
   viewBox="0 0 39.24711 43.71875"
   id="svg4712"
   version="1.1"
   inkscape:version="0.91 r13725"
   sodipodi:docname="up.svg">
  <defs
     id="defs4714" />
  <sodipodi:namedview
     id="base"
     pagecolor="#ffffff"
     bordercolor="#666666"
     borderopacity="1.0"
     inkscape:pageopacity="0.0"
     inkscape:pageshadow="2"
     inkscape:zoom="3.959798"
     inkscape:cx="81.766418"
     inkscape:cy="55.535941"
     inkscape:document-units="px"
     inkscape:current-layer="layer1"
     showgrid="false"
     fit-margin-top="0"
     fit-margin-left="0"
     fit-margin-right="0"
     fit-margin-bottom="0"
     inkscape:window-width="1920"
     inkscape:window-height="1009"
     inkscape:window-x="0"
     inkscape:window-y="0"
     inkscape:window-maximized="1" />
  <metadata
     id="metadata4717">
    <rdf:RDF>
      <cc:Work
         rdf:about="">
        <dc:format>image/svg+xml</dc:format>
        <dc:type
           rdf:resource="http://purl.org/dc/dcmitype/StillImage" />
        <dc:title></dc:title>
      </cc:Work>
    </rdf:RDF>
  </metadata>
  <g
     inkscape:label="Capa 1"
     inkscape:groupmode="layer"
     id="layer1"
     transform="translate(-243.23358,-376.21712)">
    <path
       d="m 262.85714,419.93587 c 1.30625,0 2.385,-0.0862 3.27875,-0.2575 l 0,-30.90875 3.92375,3.9225 3.295,3.29625 0.8575,0.85625 4.87375,4.875 2.06625,-2.07 c 0.94625,-0.94375 1.38625,-1.83125 1.3225,-2.66375 -0.065,-0.83125 -0.6325,-1.7825 -1.70375,-2.855 l -1.68125,-1.68 -1.1,-1.09875 -3.33125,-3.33375 -11.80125,-11.80125 -11.80125,11.80125 -3.33125,3.33375 -1.1,1.09875 -1.68125,1.68 c -1.07125,1.0725 -1.6375,2.02375 -1.70375,2.855 -0.0638,0.83375 0.37625,1.72 1.3225,2.66375 l 2.0675,2.07 4.8725,-4.875 0.85875,-0.85625 3.295,-3.29625 3.9225,-3.92375 0,30.91 c 0.86,0.17125 1.96875,0.2575 3.27875,0.2575"
       style="fill:#1abc9c;fill-opacity:1;fill-rule:nonzero;stroke:none"
       id="path146"
       inkscape:connector-curvature="0" />
  </g>
</svg>
